<svg xmlns="http://www.w3.org/2000/svg" viewBox="0 0 192 192">
  <defs>
    <linearGradient id="bg" x1="0%" y1="0%" x2="100%" y2="100%">
      <stop offset="0%" stop-color="#4F46E5"/>
      <stop offset="100%" stop-color="#1D4ED8"/>
    </linearGradient>
    <linearGradient id="accent" x1="0%" y1="0%" x2="100%" y2="100%">
      <stop offset="0%" stop-color="#34D399"/>
      <stop offset="100%" stop-color="#10B981"/>
    </linearGradient>
  </defs>
  <rect width="192" height="192" rx="48" fill="url(#bg)"/>
  <circle cx="148" cy="44" r="20" fill="#ffffff" fill-opacity=".12"/>
  <path d="M45 130V79.5L96 50l51 29.5V130c0 6.6-5.4 12-12 12H57c-6.6 0-12-5.4-12-12Z" fill="#fff"/>
  <path d="M96 50 45 79.5h102L96 50Z" fill="#C7D2FE"/>
  <rect x="82" y="100" width="28" height="42" rx="8" fill="url(#accent)"/>
  <rect x="58" y="93" width="16" height="16" rx="4" fill="#4F46E5" fill-opacity=".18"/>
  <rect x="118" y="93" width="16" height="16" rx="4" fill="#4F46E5" fill-opacity=".18"/>
  <path d="M136 136c-6.8-12.7-17.1-20-31-22.1" stroke="#10B981" stroke-width="10" stroke-linecap="round"/>
  <circle cx="145" cy="142" r="14" fill="#10B981"/>
  <path d="m138 142 5 5 9-11" fill="none" stroke="#fff" stroke-width="5" stroke-linecap="round" stroke-linejoin="round"/>
</svg>
