<svg xmlns="http://www.w3.org/2000/svg" viewBox="0 0 512 512">
  <defs>
    <linearGradient id="bg" x1="0%" y1="0%" x2="100%" y2="100%">
      <stop offset="0%" stop-color="#4F46E5"/>
      <stop offset="100%" stop-color="#1D4ED8"/>
    </linearGradient>
    <linearGradient id="accent" x1="0%" y1="0%" x2="100%" y2="100%">
      <stop offset="0%" stop-color="#34D399"/>
      <stop offset="100%" stop-color="#10B981"/>
    </linearGradient>
  </defs>
  <rect width="512" height="512" rx="128" fill="url(#bg)"/>
  <circle cx="390" cy="118" r="54" fill="#ffffff" fill-opacity=".12"/>
  <path d="M120 346V212l136-79 136 79v134c0 17.7-14.3 32-32 32H152c-17.7 0-32-14.3-32-32Z" fill="#fff"/>
  <path d="M256 133 120 212h272L256 133Z" fill="#C7D2FE"/>
  <rect x="220" y="266" width="72" height="112" rx="18" fill="url(#accent)"/>
  <rect x="156" y="246" width="42" height="42" rx="10" fill="#4F46E5" fill-opacity=".18"/>
  <rect x="314" y="246" width="42" height="42" rx="10" fill="#4F46E5" fill-opacity=".18"/>
  <path d="M362 366c-18.2-34-45.7-53.4-83-59" stroke="#10B981" stroke-width="26" stroke-linecap="round"/>
  <circle cx="388" cy="382" r="40" fill="#10B981"/>
  <path d="m367 382 16 16 26-33" fill="none" stroke="#fff" stroke-width="14" stroke-linecap="round" stroke-linejoin="round"/>
</svg>
